<svg width="16" height="16" viewBox="0 0 16 16" version="1.1" xmlns="http://www.w3.org/2000/svg"><g stroke="none" stroke-width="1" fill="none" fill-rule="evenodd"><g><g><g><path d="M0 0H30V30H0z" transform="translate(-7 -7)"/><path d="M19.8478757,17.8487999 L23,21.0017991 L21.0023536,23 L17.8501883,19.8469598 C16.7456232,20.5757789 15.4223527,21 14,21 C10.1340066,21 7,17.8659934 7,14 C7,10.1340066 10.1340066,7 14,7 C17.8659934,7 21,10.1340066 21,14 C21,15.4217568 20.5761343,16.7445143 19.8478757,17.8487999 Z M14,19 C16.7614239,19 19,16.7614239 19,14 C19,11.2385761 16.7614239,9 14,9 C11.2385761,9 9,11.2385761 9,14 C9,16.7614239 11.2385761,19 14,19 Z" fill="#E0E0E0" transform="translate(-7 -7)"/></g></g></g></g></svg>