<svg width="35" height="14" viewBox="0 0 35 14" xmlns="http://www.w3.org/2000/svg"><title>we</title><path d="M34.079 5.911h-8.826c-.016 3.401 1.829 5.65 5.13 5.65 1.9 0 3.042-1.283 3.7-2.508h.858c-.93 2.75-3.586 4.737-6.721 4.737-3.909 0-7.077-3.087-7.077-6.895C21.143 3.087 24.311 0 28.22 0c3.747 0 6.768 2.956 6.768 5.042 0 .465-.408.87-.91.87zM28.409.923c-1.846 0-2.861 1.694-3.1 3.916h5.84c-.106-1.556-.583-3.916-2.74-3.916zM20.997.23h-3.864v.631h.154a2.388 2.388 0 0 1 2.205 3.303l-1.8 4.337-2.83-6.65a.71.71 0 0 1 .654-.99h.011v-.63H8.555v.63h.093a1.43 1.43 0 0 1 1.317.87l1.003 2.359-1.83 4.41-2.83-6.65A.71.71 0 0 1 6.96.861h.012v-.63H0v.63h.094a1.43 1.43 0 0 1 1.316.87l4.73 11.114a1.26 1.26 0 0 0 2.323-.01l3.075-7.407 3.156 7.417a1.26 1.26 0 0 0 2.324-.01L21.77 1.389A.837.837 0 0 0 20.997.23" fill="#FEFEFE" fill-rule="evenodd"/></svg>