<svg xmlns="http://www.w3.org/2000/svg" xmlns:xlink="http://www.w3.org/1999/xlink" width="109px" height="24px" viewBox="0 0 109 24" version="1.1">
    <!-- Generator: Sketch 46.2 (44496) - http://www.bohemiancoding.com/sketch -->
    <title>wework logo</title>
    <desc>Created with Sketch.</desc>
    <defs/>
    <g id="Page-1" stroke="none" stroke-width="1" fill="none" fill-rule="evenodd">
        <g id="Artboard" transform="translate(-173.000000, -99.000000)" fill-rule="nonzero" fill="#FFFFFF">
            <g id="wework-logo" transform="translate(173.000000, 99.000000)">
                <path d="M9.23488621,11.8383418 C9.90675481,11.8383418 10.4935259,11.8624316 11.0128262,11.9572237 C11.7519698,12.0872691 12.3789884,13.1177418 12.3789884,13.6208843 C12.3789884,13.8778415 12.3789884,14.1641764 12.2664717,14.5805567 C12.0830568,15.2200119 10.8294113,17.5172522 10.3068794,18.3823283 C9.67839195,17.3629212 8.19961513,14.4843936 7.68873647,13.3639271 C7.46683671,12.8929043 7.35402624,12.5020826 7.35402624,12.3108336 C7.35402624,11.9572237 8.05497879,11.8383418 9.23488621,11.8383418 Z M0.853616735,11.8383418 C1.48063534,11.9942396 1.84697559,12.1244809 2.36167335,13.0469415 C4.1747687,16.3728918 5.99089974,20.040603 7.75591354,23.6495588 C7.9778133,23.8362053 8.23809995,23.8777258 8.61442863,23.8777258 C8.97763525,23.8777258 9.23488621,23.8362053 9.46638269,23.6495588 C10.3068794,22.0615947 12.5269542,17.8000617 13.484864,16.1447248 C14.5988673,18.1910793 16.5164495,21.9235194 17.2944696,23.6495588 C17.5100042,23.8362053 17.7768518,23.8777258 18.1400585,23.8777258 C18.5096303,23.8777258 18.7749111,23.8362053 18.9886831,23.6495588 C20.5430586,20.2662239 22.237272,16.753823 23.9425511,13.4878032 C24.5345123,12.3108336 24.7914695,11.9942396 26.0117223,11.7675415 L26.5292599,11.6759809 C26.8234289,11.3802451 26.7477323,10.6856578 26.4198769,10.552185 C25.6067014,10.6166201 24.647029,10.6503066 23.5697478,10.6503066 C22.6472872,10.6503066 21.7662492,10.6166201 20.5430586,10.552185 C20.1734868,10.6856578 20.1734868,11.4475201 20.3986181,11.6759809 L21.0221113,11.7963317 C21.656964,11.9266708 21.9479014,12.0872691 21.9479014,12.24963 C21.9479014,12.4729986 21.8355806,12.9199318 21.6056509,13.4878032 C21.0221113,14.9659925 20.4419013,16.532217 19.5449013,18.3823283 C18.7349574,16.8453836 17.702722,14.7732746 17.0341829,13.2383863 C16.8154168,12.6984237 16.7414828,12.5020826 16.7414828,12.24963 C16.7414828,12.0872691 17.2525574,11.9266708 18.1079388,11.7675415 L18.6575961,11.6759809 C18.9244438,11.5457397 18.9533319,10.5908656 18.5483109,10.552185 C16.1852646,10.6166201 14.3385807,10.6503066 12.0092208,10.6503066 L4.54610316,10.6503066 C2.99476336,10.6503066 1.81475802,10.6166201 0.300727925,10.552185 C-0.0769717096,10.712979 -0.0769717096,11.4154984 0.178810361,11.6759809 L0.853616735,11.8383418 L0.853616735,11.8383418 Z" id="Fill-1"/>
                <path d="M31.7139411,11.6331874 C32.964453,11.6331874 33.6717707,12.3308104 33.6717707,13.3868418 C33.6717707,13.7080382 33.5976409,14.0298223 33.4144218,14.1213829 C33.001371,14.3465142 32.4115641,14.4057592 31.8955933,14.4057592 L30.5291374,14.4057592 C29.341298,14.4057592 28.8301255,14.3834322 28.8301255,13.9301339 C28.8301255,12.9044595 30.1611324,11.6331874 31.7139411,11.6331874 Z M31.6752604,23.8349322 C33.890243,23.8349322 36.6324579,22.9061064 38.1435503,20.1930734 C38.1435503,19.6491938 37.5825336,19.3907677 37.1808422,19.4505024 C36.1824891,20.9271249 34.7746105,21.1123025 33.742571,21.1123025 C30.3090982,21.1123025 28.5311582,18.7856845 28.5311582,16.3893433 C28.5311582,15.8798356 28.6083237,15.8155963 29.4601798,15.8155963 L36.5456957,15.8155963 C37.6998487,15.8155963 37.8799341,15.368859 37.8799341,14.7628945 C37.8799341,12.3001597 35.8095878,10.1604819 31.9660999,10.1604819 C27.3543844,10.1604819 23.9918098,13.2938123 23.9918098,17.3201276 C23.9918098,20.801584 26.6889789,23.8349322 31.6752604,23.8349322 L31.6752604,23.8349322 Z" id="Fill-4"/>
                <path d="M47.3177417,11.8383418 C47.9925481,11.8383418 48.5793192,11.8624316 49.0987174,11.9572237 C49.8380568,12.0872691 50.4648796,13.1177418 50.4648796,13.6208843 C50.4648796,13.8778415 50.4648796,14.1641764 50.3554965,14.5805567 C50.1658143,15.2200119 48.9122667,17.5172522 48.3977648,18.3823283 C47.7628142,17.3629212 46.2902067,14.4843936 45.7745297,13.3639271 C45.5559594,12.8929043 45.4401133,12.5020826 45.4401133,12.3108336 C45.4401133,11.9572237 46.1376384,11.8383418 47.3177417,11.8383418 Z M38.9363743,11.8383418 C39.5699539,11.9942396 39.9332585,12.1244809 40.4505023,13.0469415 C42.2572325,16.3728918 44.0771826,20.040603 45.84533,23.6495588 C46.0701676,23.8362053 46.3274185,23.8777258 46.6971862,23.8777258 C47.0634285,23.8777258 47.3177417,23.8362053 47.5443419,23.6495588 C48.3977648,22.0615947 50.6095159,17.8000617 51.5739867,16.1447248 C52.6848564,18.1910793 54.5976402,21.9235194 55.3754645,23.6495588 C55.599029,23.8362053 55.8546152,23.8777258 56.2223264,23.8777258 C56.5956194,23.8777258 56.8561998,23.8362053 57.0747701,23.6495588 C58.6288518,20.2662239 60.3280595,16.753823 62.0304008,13.4878032 C62.6217744,12.3108336 62.8762835,11.9942396 64.0944799,11.7675415 L64.6165221,11.6759809 C64.9079491,11.3802451 64.8304898,10.6856578 64.5027323,10.552185 C63.6861295,10.6166201 62.7310596,10.6503066 61.655541,10.6503066 C60.7297509,10.6503066 59.8495943,10.6166201 58.6288518,10.552185 C58.2544816,10.6856578 58.2544816,11.4475201 58.4811798,11.6759809 L59.1083942,11.7963317 C59.7382527,11.9266708 60.030659,12.0872691 60.030659,12.24963 C60.030659,12.4729986 59.919807,12.9199318 59.7013347,13.4878032 C59.1083942,14.9659925 58.516531,16.532217 57.6276589,18.3823283 C56.8173233,16.8453836 55.7852837,14.7732746 55.1199762,13.2383863 C54.8964117,12.6984237 54.8225756,12.5020826 54.8225756,12.24963 C54.8225756,12.0872691 55.3355107,11.9266708 56.1905005,11.7675415 L56.7403536,11.6759809 C57.0009341,11.5457397 57.039321,10.5908656 56.6310685,10.552185 C54.2695889,10.6166201 52.4165399,10.6503066 50.0919783,10.6503066 L42.6288607,10.6503066 C41.0841798,10.6503066 39.8975156,10.6166201 38.3834855,10.552185 C38.0169494,10.712979 38.0169494,11.4154984 38.2742003,11.6759809 L38.9363743,11.8383418 L38.9363743,11.8383418 Z" id="Fill-5"/>
                <path d="M70.5659132,11.6331874 C72.6648539,11.6331874 73.7004187,14.311163 73.7403724,17.4147239 C73.7722962,20.2907054 73.0665453,22.3664376 70.9595748,22.3664376 C68.8261643,22.3664376 67.6018965,19.9016464 67.6018965,16.5521939 C67.6018965,13.0749482 68.9384851,11.6331874 70.5659132,11.6331874 Z M70.5659132,23.8349322 C75.1037927,23.8349322 79.0607766,21.6327779 79.0607766,16.9619152 C79.0607766,12.459289 75.1386543,10.1604819 70.782525,10.1604819 C66.4216953,10.1604819 62.2456515,12.6826577 62.2810027,17.2543215 C62.3244817,21.6586303 66.1612128,23.8349322 70.5659132,23.8349322 L70.5659132,23.8349322 Z" id="Fill-6"/>
                <path d="M85.3564119,12.8678353 C85.5835017,12.8678353 85.9108675,12.9017176 86.7567502,13.5060174 C87.2307109,13.8935096 87.6758813,14.0847586 88.1964546,14.0847586 C89.3767538,14.0847586 90.5644952,13.4786961 90.5644952,12.0078513 C90.5644952,10.8008184 89.52942,10.1238577 88.5247997,10.1238577 C86.9782583,10.1238577 85.9108675,11.1769513 84.9067368,11.7169139 C84.613743,11.6574729 84.5378505,11.5612119 84.5378505,11.3360806 C84.5378505,11.0499416 84.613743,10.60624 84.681018,9.96179058 C84.5378505,9.77201047 84.3102711,9.67085317 84.0254051,9.67085317 C82.8760505,10.31873 80.3284141,11.1769513 78.623037,11.5965631 C78.3660799,11.7830138 78.3660799,12.3599923 78.623037,12.5527102 L79.1501714,12.840514 C79.8477944,13.2247746 79.8477944,13.6057058 79.8477944,14.8865747 L79.8477944,19.7072637 C79.8477944,21.9417336 79.6995349,22.2296353 78.4783028,22.3298134 L77.7756855,22.388373 C77.478187,22.5802095 77.478187,23.3192552 77.814562,23.5109938 C79.035892,23.4416624 80.6612637,23.4138515 82.1753917,23.4138515 C83.9079921,23.4138515 85.3898046,23.4416624 87.1650027,23.5109938 C87.4973627,23.3192552 87.4973627,22.5802095 87.1983954,22.388373 L86.017117,22.2988688 C84.7973538,22.1972219 84.6477232,21.9417336 84.6477232,19.7072637 L84.6477232,14.7889427 C84.6477232,13.5769157 84.835349,12.8678353 85.3564119,12.8678353" id="Fill-7"/>
                <path d="M99.8520985,22.2818298 L99.3732416,22.3820078 C99.0735887,22.669224 99.1460538,23.3360984 99.5171924,23.4938568 C100.552268,23.4310864 101.877203,23.4003377 104.066823,23.4003377 C106.209438,23.4003377 107.572565,23.4310864 108.715359,23.4938568 C109.086497,23.3714496 109.1619,22.6035159 108.861268,22.3820078 L108.312884,22.2818298 C107.354191,22.1239734 106.653042,21.9590665 106.135015,21.550814 C105.206679,20.8171542 101.954564,16.4691528 101.299441,15.4471996 C101.108486,15.1927885 101.030145,15.0030084 101.030145,14.9039076 C101.030145,14.8102905 101.069316,14.6832808 101.250478,14.4875273 C101.769485,14.0453925 102.333537,13.5582118 103.732896,12.6324218 C104.725863,11.9670163 105.50829,11.6487576 106.209438,11.5185163 L107.386506,11.293385 C107.650906,11.0441639 107.615652,10.3306769 107.237659,10.1760521 C105.062728,10.4657165 101.994714,10.6230832 100.255553,10.6230832 L99.3732416,10.6230832 C99.0050407,10.7566539 98.9629326,11.4539832 99.2958802,11.7403181 L100.223237,11.8738889 C100.552268,11.8994475 100.920468,12.0263593 100.920468,12.1888181 C100.920468,12.381536 100.742244,12.7303475 100.03522,13.4605799 L98.488972,15.0354218 C97.746401,15.7669272 96.9714166,15.9278192 96.343027,15.9278192 C95.9408459,15.9278192 95.8219641,15.8311665 95.8219641,15.4796131 L95.8219641,5.45211374 C95.8219641,3.43641001 95.8685767,2.09257488 95.9408459,0.785559834 C95.7962096,0.621632121 95.5295578,0.563758 95.309029,0.563758 C93.4205308,1.25981426 91.1718617,2.03460283 89.6593005,2.34649636 C89.3972512,2.54273957 89.3972512,3.11971812 89.6593005,3.30137039 L90.2860253,3.62922582 C91.0221332,4.01338855 91.0221332,4.36396275 91.0221332,5.6481611 L91.0221332,19.6951209 C91.0221332,21.9296887 90.8744612,22.1866459 89.5383622,22.3192374 L88.8377034,22.3820078 C88.5452971,22.5696335 88.5452971,23.3072103 88.8746214,23.4938568 C90.1687103,23.4310864 91.6843072,23.4003377 93.3836128,23.4003377 C95.0858562,23.4003377 96.6349437,23.4310864 97.8232727,23.4938568 C98.1501489,23.3072103 98.1501489,22.5696335 97.857155,22.3820078 L97.270286,22.3192374 C95.9712029,22.1866459 95.8219641,21.9296887 95.8219641,19.6951209 L95.8219641,17.8455972 C95.8219641,17.2345405 96.0087085,17.0787406 96.2641968,17.0787406 C96.6349437,17.0787406 96.9324421,17.2086881 97.1949811,17.5496656 L99.8139075,21.0069344 C100.110622,21.3862987 100.440632,21.8962961 100.440632,22.0343714 C100.440632,22.1532532 100.223237,22.2129879 99.8520985,22.2818298" id="Fill-8"/>
            </g>
        </g>
    </g>
</svg>